<svg width="718" height="711" viewBox="0 0 718 711" fill="none" xmlns="http://www.w3.org/2000/svg">
<path d="M316 273V280H312.5C309.167 280 309 280.167 309 283.5C309 286.833 308.833 287 305.5 287C302.178 287 302 287.175 302 290.44C302 293.692 301.796 293.896 298.25 294.19C294.704 294.483 294.483 294.704 294.19 298.25C293.896 301.796 293.692 302 290.44 302C287.175 302 287 302.178 287 305.5C287 308.833 286.833 309 283.5 309C280.294 309 280 309.247 280 311.94C280 314.605 279.656 314.908 276.311 315.19L272.621 315.5L272.892 351.75L273.164 388H269.582C266.269 388 266 388.225 266 391C266 393.762 266.278 394 269.5 394C272.917 394 273 394.095 273 398V402H280H287V405.5C287 408.833 287.167 409 290.5 409C293.833 409 294 409.167 294 412.5C294 415.822 294.175 416 297.44 416C300.692 416 300.896 416.204 301.19 419.75C301.483 423.296 301.704 423.517 305.25 423.81C308.796 424.104 309 424.308 309 427.56C309 430.825 309.178 431 312.5 431H316V438V445H359H402V441.5C402 438.167 402.167 438 405.5 438C408.917 438 409 437.905 409 434C409 430.095 409.083 430 412.5 430C415.833 430 416 429.833 416 426.5C416 423.167 416.167 423 419.5 423C422.833 423 423 422.833 423 419.5C423 416.167 423.167 416 426.5 416C429.833 416 430 415.833 430 412.5C430 409.083 430.095 409 434 409C437.905 409 438 408.917 438 405.5C438 402.167 438.167 402 441.5 402C444.833 402 445 401.833 445 398.5C445 395.167 445.167 395 448.5 395H452V384V373H448.5H445V355.5V338H448.5H452V327V316H448.5C445.178 316 445 315.825 445 312.56C445 309.308 444.796 309.104 441.25 308.81C437.857 308.53 437.471 308.201 437.195 305.361C436.896 302.281 436.768 302.208 430.445 301.531L424 300.841V297.42C424 294.197 423.804 294 420.601 294H417.203L416.5 287L415.797 280H412.399C409.181 280 409 279.813 409 276.5C409 273.167 408.833 273 405.5 273C402.167 273 402 272.833 402 269.5V266H359H316V273Z" fill="#93AD19"/>
<path d="M118.75 93.728C115.22 94.098 115 94.322 115 97.56C115 100.825 114.822 101 111.5 101C108.167 101 108 101.167 108 104.5C108 107.813 107.819 108 104.601 108H101.203L100.5 115C99.808 121.895 99.754 122 96.899 122H94V133V144H96.899C99.754 144 99.808 144.105 100.5 151L101.203 158H104.601C107.9 158 108 158.118 108 162C108 165.905 108.083 166 111.5 166C114.684 166 115 166.258 115 168.861C115 171.565 115.287 171.756 120.25 172.352C127.015 173.165 145.985 173.165 152.75 172.352C157.683 171.759 158 171.553 158 168.921C158 166.407 158.383 166.089 161.75 165.81C165.296 165.517 165.517 165.296 165.81 161.75C166.104 158.204 166.308 158 169.56 158H173V151V144H176.5H180V133V122H176.5H173V115V108H169.5C166.178 108 166 107.825 166 104.56C166 101.308 165.796 101.104 162.25 100.81C158.863 100.53 158.471 100.198 158.197 97.383C157.909 94.427 157.625 94.234 152.697 93.642C147.283 92.991 125.259 93.048 118.75 93.728Z" fill="#5B7006"/>
<path d="M22 319.5C22 322.833 21.833 323 18.5 323C15.167 323 15 323.167 15 326.5C15 329.817 14.821 330 11.585 330H8.17097L7.46798 337.5C6.77998 344.84 6.70598 345 4.02198 345C1.45898 345 1.23797 345.344 0.657974 350.237C0.316974 353.117 0.316975 357.842 0.656975 360.737C1.23498 365.659 1.45297 366 4.01997 366C6.70697 366 6.77998 366.159 7.46798 373.5L8.17097 381H11.585C14.821 381 15 381.183 15 384.5C15 387.833 15.167 388 18.5 388C21.833 388 22 388.167 22 391.5V395H43.5H65V391.5C65 388.167 65.167 388 68.5 388C71.833 388 72 387.833 72 384.5C72 381.167 72.167 381 75.5 381C78.917 381 79 380.905 79 377C79 373.118 79.1 373 82.399 373H85.797L86.508 365.918C86.899 362.022 86.907 355.497 86.524 351.418C85.84 344.117 85.785 344 83.016 344C80.267 344 80.187 343.841 79.5 337L78.797 330H75.399C72.181 330 72 329.813 72 326.5C72 323.167 71.833 323 68.5 323C65.167 323 65 322.833 65 319.5V316H43.5H22V319.5Z" fill="#5A6F07"/>
<path d="M341.25 0.713007C338.433 1.07201 338 1.51001 338 4.00301C338 6.60501 337.642 6.90901 334.25 7.19001C330.704 7.48301 330.483 7.70401 330.19 11.25C329.896 14.796 329.692 15 326.44 15H323V25.5V36H319.5C316.083 36 316 36.095 316 40C316 43.905 316.083 44 319.5 44H323V54.5V65H326.5C329.833 65 330 65.167 330 68.5C330 71.917 330.095 72 334 72C337.878 72 338 72.103 338 75.379V78.759L350.655 79.18C357.615 79.412 367.29 79.411 372.155 79.178L381 78.755V75.378C381 72.184 381.191 72 384.5 72C387.833 72 388 71.833 388 68.5C388 65.167 388.167 65 391.5 65C394.833 65 395 64.833 395 61.5C395 58.167 395.167 58 398.5 58H402V40V22H398.5C395.083 22 395 21.905 395 18C395 14.095 394.917 14 391.5 14C388.167 14 388 13.833 388 10.5C388 7.17901 387.824 7.00001 384.563 7.00001C381.417 7.00001 381.1 6.72501 380.813 3.75001L380.5 0.500009L362.5 0.399011C352.6 0.344011 343.038 0.485007 341.25 0.713007Z" fill="#5A6F07"/>
<path d="M563.75 93.728C560.22 94.098 560 94.322 560 97.56C560 100.825 559.822 101 556.5 101C553.167 101 553 101.167 553 104.5C553 107.806 552.813 108 549.639 108C546.332 108 546.269 108.083 545.648 113.25C544.833 120.036 544.833 145.964 545.648 152.75C546.269 157.917 546.332 158 549.639 158C552.794 158 553 158.208 553 161.399V164.797L560 165.5L567 166.203V169.625V173.046L584.75 172.773L602.5 172.5L602.813 169.25C603.1 166.275 603.417 166 606.563 166C609.824 166 610 165.821 610 162.5C610 159.167 610.167 159 613.5 159C616.917 159 617 158.905 617 155C617 151.095 617.083 151 620.5 151H624V133V115H620.5H617V108.101V101.203L610 100.5C603.194 99.817 603 99.72 603 97.038C603 94.456 602.662 94.238 597.75 93.648C592.293 92.993 570.287 93.045 563.75 93.728Z" fill="#5A6F08"/>
<path d="M122 541.5V545H115H108V549C108 552.882 107.9 553 104.601 553H101.203L100.5 560C99.808 566.895 99.754 567 96.899 567H94V580.937V594.873L97.25 595.187C100.217 595.473 100.527 595.826 100.81 599.25C101.104 602.796 101.308 603 104.56 603C107.825 603 108 603.178 108 606.5C108 609.833 108.167 610 111.5 610C114.825 610 115 610.173 115 613.456V616.912L122.25 617.206L129.5 617.5L129.813 620.75L130.127 624H137.063H144V620.5V617H151H158V613.5C158 610.083 158.095 610 162 610C165.905 610 166 609.917 166 606.5C166 603.167 166.167 603 169.5 603C172.917 603 173 602.905 173 599C173 595.264 173.189 595 175.864 595C178.513 595 178.776 594.652 179.364 590.36C179.714 587.809 180 581.509 180 576.36V567H176.629H173.258L172.574 560.059C171.894 553.149 171.876 553.117 168.695 552.809C165.791 552.528 165.472 552.159 165.19 548.75L164.879 545H157.94H151V541.5V538H136.5H122V541.5Z" fill="#5B7006"/>
<path d="M344.667 631.667C344.3 632.033 344 633.563 344 635.065C344 637.714 343.787 637.818 337 638.5L330 639.203V642.601C330 645.819 329.813 646 326.5 646H323V656.5V667H319.5H316V674V681H319.5H323V688.5V696H326.5C329.833 696 330 696.167 330 699.5C330 702.833 330.167 703 333.5 703C336.816 703 337 703.179 337 706.41V709.82L345.25 710.474C349.788 710.834 359.575 710.987 367 710.814L380.5 710.5L380.809 707.305C381.117 704.124 381.149 704.106 388.059 703.426L395 702.742V695.871V689H398.5H402V671V653H398.5C395.167 653 395 652.833 395 649.5C395 646.178 394.825 646 391.56 646C388.308 646 388.104 645.796 387.81 642.25C387.517 638.704 387.296 638.483 383.75 638.19C380.383 637.911 380 637.593 380 635.079C380 632.447 379.683 632.241 374.75 631.648C367.767 630.809 345.51 630.823 344.667 631.667Z" fill="#5B7006"/>
<path d="M567 541.348V544.742L560.111 545.42L553.222 546.099L552.538 552.492C551.865 558.775 551.799 558.889 548.677 559.192L545.5 559.5V581V602.5L548.75 602.813C551.725 603.1 552 603.417 552 606.563C552 609.906 552.109 610 556 610C559.905 610 560 610.083 560 613.5V617L565.25 617.009C568.138 617.013 572.862 617.301 575.75 617.648C580.713 618.244 581 618.435 581 621.139C581 623.742 581.316 624 584.5 624C587.684 624 588 623.742 588 621.139C588 618.435 588.287 618.244 593.25 617.648C596.138 617.301 601.087 617.013 604.25 617.009L610 617V613.5C610 610.178 610.175 610 613.44 610C616.692 610 616.896 609.796 617.19 606.25C617.473 602.826 617.783 602.473 620.75 602.187L624 601.873V580.937V560H620.5C617.083 560 617 559.905 617 556C617 552.095 616.917 552 613.5 552C610.167 552 610 551.833 610 548.5C610 545.179 609.824 545 606.563 545C603.417 545 603.1 544.725 602.813 541.75L602.5 538.5L584.75 538.227L567 537.954V541.348Z" fill="#5A6F06"/>
<path fill-rule="evenodd" clip-rule="evenodd" d="M212.038 29C214.72 29 214.817 28.806 215.5 22L216.203 15H223.101H230V18.5V22H237H244V25.5V29H250.899H257.797L258.494 35.944C259.186 42.833 259.217 42.89 262.346 43.194L265.5 43.5L265.784 54.25L266.068 65H269.534H273V83V101H276.5H280V111.5V122H276.5H273V133V144H269.5C266.178 144 266 143.825 266 140.56C266 137.308 265.796 137.104 262.25 136.81C258.826 136.527 258.473 136.217 258.187 133.25C257.9 130.275 257.583 130 254.437 130C251.176 130 251 129.821 251 126.5C251 123.167 250.833 123 247.5 123C244.167 123 244 122.833 244 119.5C244 116.167 243.833 116 240.5 116C237.083 116 237 115.905 237 112C237 108.095 236.917 108 233.5 108C230.167 108 230 107.833 230 104.5C230 101.192 229.815 101 226.629 101H223.258L222.574 94.059C221.894 87.149 221.876 87.117 218.695 86.809L215.5 86.5L215.206 79.25L214.912 72H211.456H208L208.009 55.75C208.013 46.813 208.301 37.137 208.648 34.25C209.238 29.338 209.456 29 212.038 29ZM489.75 21.352C494.713 20.756 495 20.565 495 17.861C495 15.268 495.322 15 498.437 15C501.583 15 501.9 15.275 502.187 18.25C502.459 21.075 502.907 21.54 505.617 21.803C508.573 22.091 508.766 22.375 509.358 27.303C509.702 30.162 509.987 34.863 509.991 37.75L510 43H513.5H517V50.5V58H513.5H510V68.5V79H506.585H503.171L502.468 86.5L501.765 94H498.383C495.183 94 495 94.19 495 97.5C495 100.833 494.833 101 491.5 101H488V108V115H484.5C481.167 115 481 115.167 481 118.5C481 121.833 480.833 122 477.5 122C474.178 122 474 122.175 474 125.44C474 128.692 473.796 128.896 470.25 129.19C466.846 129.471 466.472 129.793 466.192 132.677C465.89 135.799 465.775 135.865 459.497 136.537C453.238 137.208 453.104 137.284 452.805 140.361C452.529 143.201 452.143 143.53 448.75 143.81L445 144.121V108.06V72H448.5H452V61.5V51H455.456H458.912L459.206 43.75L459.5 36.5L462.75 36.187C465.725 35.9 466 35.583 466 32.437C466 29.094 466.109 29 470 29C473.905 29 474 28.917 474 25.5V22L479.25 21.991C482.138 21.987 486.862 21.699 489.75 21.352ZM287.5 86.5L287.223 72.25L286.945 58H290.473C293.837 58 294 58.161 294 61.5C294 64.813 294.181 65 297.399 65H300.797L301.5 72L302.203 79H305.601C308.9 79 309 79.118 309 83C309 86.905 309.083 87 312.5 87H316V94V101H319.5H323V111.5V122H326.5H330L330.005 129.25C330.007 133.238 330.301 141.563 330.657 147.75L331.306 159H334.153C336.621 159 337 159.382 337 161.871C337 164.635 336.779 164.767 331.051 165.415C327.78 165.785 319.905 165.777 313.551 165.397L302 164.706V161.353V158H294.466H286.932L287.216 147.25L287.5 136.5L290.75 136.187L294 135.873V111.5V87.127L290.75 86.813L287.5 86.5ZM426.5 65C429.833 65 430 64.833 430 61.5C430 58.083 430.095 58 434 58C437.905 58 438 58.083 438 61.5C438 64.833 437.833 65 434.5 65H431V111.456V157.912L423.75 158.206L416.5 158.5L416.195 161.632L415.891 164.765L402.353 165.49C394.907 165.889 388.468 165.829 388.043 165.357C387.619 164.886 387.493 156.762 387.763 147.304L388.253 130.108L391.376 129.804L394.5 129.5L394.784 118.75L395.068 108H398.534H402V101V94H405.456H408.912L409.206 86.75L409.5 79.5L412.75 79.187C415.725 78.9 416 78.583 416 75.437C416 72.176 416.179 72 419.5 72C422.833 72 423 71.833 423 68.5C423 65.167 423.167 65 426.5 65ZM201 112.167C201 102.358 201.3 94.033 201.667 93.667C202.033 93.3 203.555 93 205.049 93C207.7 93 207.782 93.18 208.468 100.5L209.171 108H212.585C215.821 108 216 108.183 216 111.5C216 114.833 216.167 115 219.5 115C222.917 115 223 115.095 223 119C223 122.905 223.083 123 226.5 123C229.833 123 230 123.167 230 126.5C230 129.833 230.167 130 233.5 130C236.833 130 237 130.167 237 133.5C237 136.833 237.167 137 240.5 137C243.833 137 244 137.167 244 140.5C244 143.833 244.167 144 247.5 144C250.833 144 251 144.167 251 147.5C251 150.917 251.095 151 255 151C258.905 151 259 151.083 259 154.5C259 157.84 259.162 158 262.534 158H266.068L265.784 168.75L265.5 179.5L262.25 179.813L259 180.127V187.063V194H255.5C252.167 194 252 194.167 252 197.5V201H244.5H237V197.5C237 194.167 236.833 194 233.5 194H230V187V180H226.629H223.258L222.574 173.059C221.894 166.149 221.876 166.117 218.695 165.809L215.5 165.5L215.206 158.25L214.912 151H211.456H208V140.5V130H204.5H201V112.167ZM513.5 100C516.845 100 517 99.842 517 96.437C517 93.019 517.133 92.886 520.25 93.187L523.5 93.5L523.794 100.75L524.088 108H520.544H517L516.991 120.75C516.987 127.762 516.699 135.863 516.352 138.75C515.756 143.713 515.565 144 512.861 144H510V151V158H506.617H503.235L502.532 165.5C501.837 172.917 501.798 173 498.975 173C496.174 173 496.108 173.13 495.431 180L494.742 187H491.371C488.185 187 488 187.192 488 190.5C488 193.833 487.833 194 484.5 194C481.167 194 481 194.167 481 197.5V201H474.101H467.203L466.5 194L465.797 187H462.399H459V180.063V173.127L455.75 172.813L452.5 172.5L452.206 165.25L451.912 158H455.956C459.911 158 460 157.923 460 154.5V151H466.5H473V147.56C473 144.308 473.204 144.104 476.75 143.81C480.296 143.517 480.517 143.296 480.81 139.75C481.104 136.204 481.308 136 484.56 136C487.825 136 488 135.822 488 132.5C488 129.167 488.167 129 491.5 129C494.833 129 495 128.833 495 125.5C495 122.187 495.181 122 498.399 122H501.797L502.5 115L503.203 108H506.601C509.9 108 510 107.882 510 104C510 100.095 510.083 100 513.5 100ZM280 187V179.5V172L285.25 172.009C288.137 172.013 292.863 172.301 295.75 172.648C300.641 173.235 301 173.464 301 175.997C301 178.59 301.283 178.745 307.147 179.358C310.527 179.711 315.477 180 318.147 180C322.85 180 323 180.091 323 182.94C323 185.615 323.337 185.907 326.75 186.19C330.372 186.489 330.498 186.628 330.45 190.25C330.422 192.313 330.31 198.95 330.2 205L330 216H327.136C324.487 216 324.224 216.348 323.636 220.64C323.286 223.191 323 227.916 323 231.14V237H319.5C316.167 237 316 237.167 316 240.5V244H308.5H301V240.5V237H294H287V233.5V230H280H273V226.5C273 223.083 272.905 223 269 223C265.095 223 265 222.917 265 219.5C265 216.278 264.762 216 262 216C259.249 216 259 215.715 259 212.563C259 209.417 259.275 209.1 262.25 208.813C265.217 208.527 265.527 208.174 265.81 204.75C266.104 201.204 266.308 201 269.56 201H273V194V187H276.5H280ZM423 175.967C423 173.414 423.387 173.08 426.75 172.728C428.813 172.513 432.188 172.261 434.25 172.168C437.901 172.004 438 172.092 438 175.5C438 178.833 438.167 179 441.5 179H445V186.5V194H448.399H451.797L452.5 201C453.192 207.895 453.246 208 456.101 208H459V215.5V223H455.5C452.305 223 452 223.253 452 225.899C452 228.754 451.895 228.808 445 229.5L438 230.203V233.601V237H430.5H423V240.5V244H412.5H402V237V230H398.534H395.068L394.784 219.25L394.5 208.5L391.25 208.187L388 207.873V197.437V187H391.5C394.808 187 395 186.815 395 183.628V180.256L409 179.535L423 178.814V175.967ZM348 194C350.762 194 351 193.722 351 190.5V187H361.888H372.775L373.5 201L374.225 215H376.97C379.596 215 379.743 215.267 380.358 221.147C380.711 224.527 381 229.477 381 232.147V237H384.5H388V243.879V250.758L373.5 251.483C365.525 251.882 352.475 251.882 344.5 251.483L330 250.758V247.379C330 244.184 330.191 244 333.5 244H337L337.009 238.75C337.013 235.863 337.301 231.137 337.648 228.25C338.235 223.359 338.464 223 340.997 223C343.59 223 343.745 222.717 344.358 216.853C344.711 213.473 345 206.948 345 202.353V194H348ZM94 201V197.5V194H108H122V197.5V201H136.5H151V204.456V207.912L158.25 208.206L165.5 208.5L165.806 211.654C166.11 214.783 166.167 214.814 173.056 215.506L180 216.203V219.601V223H187H194V226.5C194 229.833 194.167 230 197.5 230C200.833 230 201 230.167 201 233.5C201 236.833 201.167 237 204.5 237C207.821 237 208 237.176 208 240.437C208 243.583 207.725 243.9 204.75 244.187C201.915 244.46 201.461 244.903 201.194 247.654C200.89 250.783 200.833 250.814 193.944 251.506L187 252.203V255.601V259H180.063H173.127L172.813 262.25C172.525 265.238 172.218 265.5 169 265.5C165.782 265.5 165.475 265.238 165.187 262.25C164.9 259.275 164.583 259 161.437 259C158.094 259 158 258.891 158 255C158 251.095 157.917 251 154.5 251H151V244V237H147.5C144.167 237 144 236.833 144 233.5C144 230.083 143.905 230 140 230C136.121 230 136 229.897 136 226.616V223.233L129.558 222.543C123.22 221.864 123.111 221.802 122.808 218.677C122.528 215.793 122.154 215.471 118.75 215.19C115.204 214.896 115 214.692 115 211.44C115 208.175 114.822 208 111.5 208C108.167 208 108 207.833 108 204.5V201H101H94ZM596 201V197.5V194H610H624V197.5C624 200.833 623.833 201 620.5 201C617.187 201 617 201.181 617 204.399V207.797L610 208.5L603 209.203V212.601C603 215.807 602.805 216 599.563 216C596.417 216 596.1 216.275 595.813 219.25C595.527 222.217 595.174 222.527 591.75 222.81C588.204 223.104 588 223.308 588 226.56C588 229.825 587.822 230 584.5 230C581.167 230 581 230.167 581 233.5C581 236.833 580.833 237 577.5 237C574.167 237 574 237.167 574 240.5C574 243.833 573.833 244 570.5 244C567.083 244 567 244.095 567 248C567 251.879 566.897 252 563.616 252H560.233L559.537 258.5L558.841 265H552.42C546.011 265 546 264.995 546 262.117C546 259.259 545.936 259.229 538.5 258.532C531.111 257.84 531 257.788 531 255.016C531 252.267 530.841 252.187 524 251.5C518.454 250.943 516.998 250.455 516.991 249.149C516.987 248.242 516.699 245.137 516.352 242.25L515.721 237H519.361C522.853 237 523 236.859 523 233.5C523 230.083 523.095 230 527 230C530.891 230 531 229.907 531 226.56C531 223.308 531.204 223.104 534.75 222.81C538.159 222.528 538.528 222.209 538.809 219.305C539.117 216.124 539.149 216.106 546.059 215.426C552.838 214.758 553 214.676 553 211.931C553 209.184 553.158 209.106 560 208.431C566.79 207.762 567 207.66 567 205.01C567 202.462 567.352 202.236 572.25 201.648C575.138 201.301 581.663 201.013 586.75 201.009L596 201ZM43 208V204.5V201L52.25 201.009C57.338 201.013 63.863 201.301 66.75 201.648C71.692 202.242 72 202.444 72 205.095C72 207.899 72.035 207.914 79.25 208.206L86.5 208.5L86.806 211.654C87.11 214.783 87.167 214.814 94.056 215.506L101 216.203V219.601C101 222.819 101.187 223 104.5 223C107.833 223 108 223.167 108 226.5V230H115H122V233.5C122 236.822 122.175 237 125.44 237C128.692 237 128.896 237.204 129.19 240.75C129.471 244.154 129.793 244.528 132.677 244.808C135.802 245.111 135.864 245.22 136.543 251.558L137.233 258H140.616H144V265.5V273H115H86V269.5V266H72H58V262.617V259.235L50.5 258.532C43.043 257.833 43 257.813 43 254.915C43 252.25 42.699 252 39.5 252C36.167 252 36 251.833 36 248.5C36 245.167 35.833 245 32.5 245H29V237.5V230H25.5H22V219.639V209.279L27.25 208.648C30.138 208.301 34.862 208.013 37.75 208.009L43 208ZM653 208V204.5V201H667H681V204.5V208H688.5H696V212C696 215.905 696.083 216 699.5 216C702.833 216 703 216.167 703 219.5C703 222.833 702.833 223 699.5 223H696V230V237H692.5H689V243.94V250.879L685.25 251.19C681.863 251.47 681.471 251.802 681.197 254.617C680.909 257.573 680.625 257.766 675.697 258.358C672.838 258.702 668.138 258.987 665.25 258.991L660 259V262.5V266H649H638V269.5V273H605.956H573.912L574.206 265.75L574.5 258.5L577.75 258.187C580.725 257.9 581 257.583 581 254.437C581 251.176 581.179 251 584.5 251C587.833 251 588 250.833 588 247.5C588 244.167 588.167 244 591.5 244C594.833 244 595 243.833 595 240.5C595 237.083 595.095 237 599 237C602.905 237 603 236.917 603 233.5C603 230.167 603.167 230 606.5 230C609.813 230 610 229.819 610 226.601V223.203L617 222.5L624 221.797V218.399C624 215.1 624.118 215 628 215C631.736 215 632 214.811 632 212.136C632 209.487 632.348 209.224 636.64 208.636C639.191 208.286 643.916 208 647.14 208H653ZM240.5 237C243.833 237 244 236.833 244 233.5V230H251H258V233.5C258 236.917 258.095 237 262 237C265.905 237 266 237.083 266 240.5V244H273H280V247.5V251H287H294V254.5C294 257.917 294.095 258 298 258C302.493 258 302.515 258.065 301.352 267.75C300.731 272.917 300.668 273 297.361 273C294.187 273 294 273.194 294 276.5C294 279.833 293.833 280 290.5 280C287.167 280 287 280.167 287 283.5C287 286.833 286.833 287 283.5 287C280.167 287 280 287.167 280 290.5C280 293.833 279.833 294 276.5 294C273.167 294 273 294.167 273 297.5C273 300.833 272.833 301 269.5 301C266.278 301 266 300.762 266 298C266 295.258 265.709 295 262.617 295H259.235L258.532 287.5L257.829 280H254.415H251V273V266H247.5C244.083 266 244 265.905 244 262C244 258.095 243.917 258 240.5 258H237V247.5V237H240.5ZM466 237V233.5V230H473H480V233.5C480 236.917 480.095 237 484 237H488V244V251H484.5C481.083 251 481 251.095 481 255C481 258.905 480.917 259 477.5 259H474V266V273H470.601H467.203L466.5 280C465.813 286.841 465.733 287 462.984 287C460.21 287 460.161 287.107 459.463 294.554L458.755 302.108L455.627 301.804C452.906 301.539 452.459 301.078 452.187 298.25C451.9 295.275 451.583 295 448.437 295C445.187 295 445 294.813 445 291.56C445 288.308 444.796 288.104 441.25 287.81C437.704 287.517 437.483 287.296 437.19 283.75C436.896 280.204 436.692 280 433.44 280C430.175 280 430 279.822 430 276.5C430 273.167 429.833 273 426.5 273C423.167 273 423 272.833 423 269.5C423 266.155 422.842 266 419.44 266C415.937 266 415.884 265.939 416.19 262.25C416.483 258.704 416.704 258.483 420.25 258.19C423.617 257.911 424 257.593 424 255.079C424 252.447 424.317 252.241 429.25 251.648C432.137 251.301 436.863 251.013 439.75 251.009L445 251V247.5C445 244.167 445.167 244 448.5 244C451.833 244 452 243.833 452 240.5V237H459H466ZM208 262.56C208 259.322 208.22 259.098 211.75 258.728C218.662 258.005 219.701 257.997 224.313 258.629L228.904 259.259L229.581 266.129L230.258 273H233.629H237V280V287H240.456H243.912L244.206 294.25L244.5 301.5L247.75 301.813C250.725 302.1 251 302.417 251 305.563C251 308.699 250.743 309 248.063 309C245.481 309 245.089 309.392 244.813 312.25L244.5 315.5L237.25 315.794L230 316.088V319.544V323H219H208V326.5V330H197.5H187V320.64C187 315.491 186.714 309.191 186.364 306.64C185.778 302.367 185.505 302 182.908 302C180.101 302 180.086 301.967 179.794 294.75L179.5 287.5L176.25 287.187C173.275 286.9 173 286.583 173 283.437C173 280.176 173.179 280 176.5 280C179.833 280 180 279.833 180 276.5V273H187H194V269.5V266H201H208V262.56ZM491.5 266C494.917 266 495 265.905 495 262V258H502.5H510V261.399V264.797L517 265.5L524 266.203V269.601V273H534.5H545V283.437V293.873L541.75 294.187L538.5 294.5L538.216 305.25L537.932 316H534.466H531V323V330H524H517V327.139C517 324.435 516.713 324.244 511.75 323.648C508.862 323.301 502.337 323.013 497.25 323.009L488 323V319.5V316H481H474V305V294H476.939C479.846 294 479.887 293.923 480.569 287L481.258 280H484.629H488V273V266H491.5ZM61.5 287C58.167 287 58 286.833 58 283.5V280H68.5H79V283.5V287H117.36C138.459 287 157.809 287.286 160.36 287.636L165 288.272V292.489C165 294.809 165.289 299.473 165.642 302.853C166.255 308.717 166.41 309 169.003 309C171.536 309 171.765 309.359 172.352 314.25C172.699 317.137 172.987 321.863 172.991 324.75L173 330H158.5H144V327.139C144 324.435 143.713 324.244 138.75 323.648C135.863 323.301 129.338 323.013 124.25 323.009L115 323V319.5V316H108H101V312.5V309H94H87V305.5C87 302.083 86.905 302 83 302C79.118 302 79 301.9 79 298.601V295.203L72 294.5L65 293.797V290.399C65 287.181 64.813 287 61.5 287ZM646 287V283.5V280H653H660V283.5C660 286.833 659.833 287 656.5 287C653.167 287 653 287.167 653 290.5C653 293.833 652.833 294 649.5 294C646.187 294 646 294.181 646 297.399V300.797L639 301.5L632 302.203V305.601C632 308.9 631.882 309 628 309C624.264 309 624 309.189 624 311.864C624 314.513 623.652 314.776 619.36 315.364C616.809 315.714 612.084 316 608.86 316H603V319.5V323H592H581V326.5V330H563.5H546V326.5C546 323.308 546.254 323 548.888 323H551.775L552.497 309.055L553.219 295.11L556.36 294.805C559.202 294.529 559.529 294.144 559.81 290.75L560.121 287H603.06H646ZM237 336.932V333.466V330H242.86C246.084 330 250.754 330.279 253.239 330.619L257.757 331.239L258.461 343.025C258.848 349.507 258.843 360.449 258.45 367.34L257.737 379.869L251.363 380.552C247.858 380.927 241.617 380.918 237.495 380.532L230 379.829V376.415V373H219H208V370.101C208 367.246 207.895 367.192 201 366.5L194 365.797V354.899V344H204.437H214.873L215.187 340.75L215.5 337.5L226.25 337.216L237 336.932ZM466.636 382.36C466.286 379.809 466 366.984 466 353.86V330L471.75 330.009C474.913 330.013 479.862 330.301 482.75 330.648C487.713 331.244 488 331.435 488 334.139C488 336.954 488.092 337 493.75 337.009C496.913 337.013 501.862 337.301 504.75 337.648C509.713 338.244 510 338.435 510 341.139C510 343.923 510.142 344 515.25 344.009C518.138 344.013 522.862 344.301 525.75 344.648L531 345.279V355.639V366H524H517V369.5V373L507.75 373.009C502.663 373.013 496.138 373.301 493.25 373.648C488.329 374.239 488 374.453 488 377.054C488 379.779 487.863 379.842 480.5 380.532C473.064 381.229 473 381.259 473 384.117C473 386.623 472.626 387 470.136 387C467.487 387 467.224 386.652 466.636 382.36ZM151 386.758V383.879V381H161.361H171.721L172.3 385.887C172.618 388.574 172.618 393.299 172.3 396.387C171.752 401.687 171.569 402 168.999 402C166.464 402 166.236 402.358 165.648 407.25C165.301 410.137 165.013 414.862 165.009 417.75L165 423H161.5C158.083 423 158 423.095 158 427C158 430.905 157.917 431 154.5 431C151.167 431 151 430.833 151 427.5V424H118.5H86V426.861C86 429.565 85.713 429.756 80.75 430.352C77.863 430.699 73.137 430.987 70.25 430.991L65 431V427C65 423.095 65.083 423 68.5 423C71.833 423 72 422.833 72 419.5C72 416.167 72.167 416 75.5 416C78.833 416 79 415.833 79 412.5C79 409.083 79.095 409 83 409C86.905 409 87 408.917 87 405.5V402H94H101V398.5V395L106.25 394.991C109.137 394.987 113.863 394.699 116.75 394.352C121.661 393.762 122 393.544 122 390.965V388.208L136.5 387.483L151 386.758ZM524 386.758V383.879C524 381.255 524.31 381 527.5 381H531V388V395H534.5H538L538.009 403.75C538.013 408.563 538.301 414.862 538.648 417.75C539.244 422.713 539.435 423 542.139 423H545V430.5V438H538H531V441.5V445H524H517V448.355V451.709L506.772 452.273C501.147 452.583 496.197 452.622 495.772 452.359C495.347 452.097 495 450.334 495 448.441C495 445.175 494.822 445 491.5 445C488.083 445 488 444.905 488 441C488 437.095 487.917 437 484.5 437H481V430V423H477.647H474.294L473.742 413.748C473.438 408.659 473.431 402.359 473.725 399.748L474.26 395L479.38 394.991C482.196 394.987 486.862 394.699 489.75 394.352C494.661 393.762 495 393.544 495 390.965V388.208L509.5 387.483L524 386.758ZM548.888 388C546.254 388 546 387.692 546 384.5V381H560H574V383.888V386.775L587.945 387.497L601.89 388.219L602.195 391.36L602.5 394.5L609.75 394.794L617 395.088V398.544V402H624H631V405.5C631 408.917 631.095 409 635 409C638.882 409 639 409.1 639 412.399V415.797L646 416.5L653 417.203V420.601C653 423.819 653.187 424 656.5 424C659.833 424 660 424.167 660 427.5V431H655.147C652.477 431 647.527 430.711 644.147 430.358C638.202 429.736 638 429.621 638 426.858V424H606H574V427V430H567.046H560.091L559.796 423.25L559.5 416.5L556.36 416.195L553.219 415.89L552.497 401.945L551.775 388H548.888ZM187 409V398V387H197.344C203.034 387 212.46 387.292 218.292 387.649L228.895 388.298L229.198 391.399L229.5 394.5L236.75 394.794L244 395.088V398.544C244 401.827 244.175 402 247.5 402C250.833 402 251 402.167 251 405.5C251 408.699 250.75 409 248.085 409C245.187 409 245.167 409.043 244.468 416.5L243.765 424H240.383H237V431V438H233.5H230V445V452H226.5C223.167 452 223 452.167 223 455.5C223 458.833 222.833 459 219.5 459C216.167 459 216 458.833 216 455.5C216 452.083 215.905 452 212 452C208.095 452 208 451.917 208 448.5V445H201H194V441.5V438H188.14C184.916 438 180.191 437.714 177.64 437.364C173.166 436.751 173 436.608 173 433.364C173 430.329 173.28 430 175.861 430C178.565 430 178.756 429.713 179.352 424.75C179.699 421.862 179.987 417.138 179.991 414.25L180 409H183.5H187ZM449 416C452.905 416 453 415.917 453 412.5C453 409.309 453.255 409 455.883 409C458.741 409 458.771 409.064 459.468 416.5C460.16 423.889 460.212 424 462.984 424C465.733 424 465.813 424.159 466.5 431C467.186 437.831 467.271 438 470 438C472.729 438 472.814 438.169 473.5 445L474.203 452H477.601C480.9 452 481 452.118 481 456C481 459.905 481.083 460 484.5 460H488V466.5V473H484.5C481.083 473 481 473.095 481 477V481H475.14C471.916 481 467.191 480.714 464.64 480.364C460.375 479.779 460 479.502 460 476.924C460 474.406 459.618 474.089 456.25 473.81C452.852 473.529 452.471 473.204 452.194 470.346C451.89 467.217 451.833 467.186 444.944 466.494C438.163 465.813 438 465.731 438 462.984C438 460.212 437.889 460.16 430.5 459.468L423 458.765V455.383C423 452.183 422.81 452 419.5 452C416.167 452 416 451.833 416 448.5C416 445.167 416.167 445 419.5 445C422.833 445 423 444.833 423 441.5C423 438.178 423.175 438 426.44 438C429.692 438 429.896 437.796 430.19 434.25C430.483 430.704 430.704 430.483 434.25 430.19C437.796 429.896 438 429.692 438 426.44C438 423.175 438.178 423 441.5 423C444.833 423 445 422.833 445 419.5C445 416.083 445.095 416 449 416ZM254.975 431C257.798 431 257.837 430.917 258.532 423.5L259.235 416L264.367 416.009C267.19 416.013 271.863 416.301 274.75 416.648C279.917 417.269 280 417.332 280 420.639C280 423.813 280.194 424 283.5 424C286.833 424 287 424.167 287 427.5C287 430.833 287.167 431 290.5 431C293.833 431 294 431.167 294 434.5C294 437.81 294.183 438 297.384 438H300.767L301.46 444.472C301.841 448.031 301.867 451.406 301.518 451.972C301.168 452.537 299.559 453 297.941 453C295.367 453 295 453.359 295 455.883C295 458.741 294.936 458.771 287.5 459.468L280 460.171V463.585V467H273H266V470.5C266 473.833 265.833 474 262.5 474C259.167 474 259 474.167 259 477.5V481H251.5H244V477.5C244 474.167 243.833 474 240.5 474H237V466.5V459H240.5H244V452V445H247.371H250.742L251.431 438C252.108 431.13 252.174 431 254.975 431ZM93 445V441.5V438H117.861H142.721L143.352 443.25C143.699 446.138 143.987 450.862 143.991 453.75L144 459H140.5C137.178 459 137 459.175 137 462.44C137 465.692 136.796 465.896 133.25 466.19C129.704 466.483 129.483 466.704 129.19 470.25C128.896 473.796 128.692 474 125.44 474C122.175 474 122 474.178 122 477.5C122 480.833 121.833 481 118.5 481C115.167 481 115 481.167 115 484.5V488H108H101V491.371V494.742L94 495.431C87.15 496.106 87 496.182 87 498.943C87 501.726 86.895 501.775 79.5 502.468C72.137 503.158 72 503.221 72 505.946C72 508.547 71.671 508.761 66.75 509.352C59.97 510.166 49.907 510.169 42.147 509.358C36.26 508.742 36 508.599 36 505.959C36 503.28 35.803 503.183 29 502.5L22 501.797V491.399V481H25.5H29V473.5V466H32.5C35.833 466 36 465.833 36 462.5C36 459.083 36.095 459 40 459C43.905 459 44 458.917 44 455.5V452H54.5H65V448.5V445H79H93ZM577.5 445C580.833 445 581 444.833 581 441.5V438H606H631V441.5V445H645.5H660V448.5V452H667.5H675V455.399V458.797L682 459.5L689 460.203V467.101V474H692.5H696V481V488H699.5C702.833 488 703 488.167 703 491.5C703 494.833 702.833 495 699.5 495C696.187 495 696 495.181 696 498.399V501.797L689 502.5C682.194 503.183 682 503.28 682 505.962C682 508.544 681.662 508.762 676.75 509.352C670.023 510.16 657.977 510.16 651.25 509.352C646.338 508.762 646 508.544 646 505.962C646 503.282 645.802 503.183 639.056 502.506C632.167 501.814 632.11 501.783 631.806 498.654L631.5 495.5L624.25 495.206L617 494.912V491.456C617 488.173 616.825 488 613.5 488C610.178 488 610 487.825 610 484.56C610 481.308 609.796 481.104 606.25 480.81C602.826 480.527 602.473 480.217 602.187 477.25C601.9 474.275 601.583 474 598.437 474C595.176 474 595 473.821 595 470.5C595 467.167 594.833 467 591.5 467C588.167 467 588 466.833 588 463.5C588 460.167 587.833 460 584.5 460C581.083 460 581 459.905 581 456C581 452.095 580.917 452 577.5 452C574.167 452 574 451.833 574 448.5C574 445.167 574.167 445 577.5 445ZM162 452C165.905 452 166 451.917 166 448.5C166 445.278 166.238 445 169 445C171.762 445 172 445.278 172 448.5V452H179.5H187V455.399V458.797L194 459.5C200.895 460.192 201 460.246 201 463.101C201 465.747 201.305 466 204.5 466C207.917 466 208 466.095 208 470C208 473.905 207.917 474 204.5 474C201.167 474 201 474.167 201 477.5C201 480.833 200.833 481 197.5 481C194.167 481 194 481.167 194 484.5V488H187H180V491.44C180 494.692 179.796 494.896 176.25 495.19C172.826 495.473 172.473 495.783 172.187 498.75C171.887 501.863 171.692 502 167.583 502C165.224 502 160.527 502.289 157.147 502.642L151 503.285V506.642V510H140.563H130.127L129.813 513.25L129.5 516.5L118 516.812C111.675 516.984 103.688 516.836 100.25 516.483C94.213 515.863 94 515.745 94 513.022C94 510.265 94.155 510.187 101 509.5L108 508.797V505.399C108 502.181 108.187 502 111.5 502C114.695 502 115 501.747 115 499.101C115 496.246 115.105 496.192 122 495.5L129 494.797V491.399C129 488.181 129.187 488 132.5 488C135.833 488 136 487.833 136 484.5C136 481.083 136.095 481 140 481H144V477C144 473.095 144.083 473 147.5 473C150.833 473 151 472.833 151 469.5C151 466.167 151.167 466 154.5 466H158V459V452H162ZM531 456.106C531 454.581 531.3 453.033 531.667 452.667C532.033 452.3 538.558 452 546.167 452H560V455.5C560 458.833 560.167 459 563.5 459C566.917 459 567 459.095 567 463C567 466.905 567.083 467 570.5 467C573.833 467 574 467.167 574 470.5C574 473.833 574.167 474 577.5 474C580.833 474 581 474.167 581 477.5C581 480.833 581.167 481 584.5 481C587.833 481 588 481.167 588 484.5C588 487.833 588.167 488 591.5 488C594.833 488 595 488.167 595 491.5C595 494.917 595.095 495 599 495C602.905 495 603 495.083 603 498.5C603 501.833 603.167 502 606.5 502C609.808 502 610 502.185 610 505.371V508.742L617 509.431L624 510.121V513.561V517H611.14C604.066 517 596.191 516.714 593.64 516.364C589.348 515.776 589 515.513 589 512.864C589 510.045 588.91 510 583.25 509.991C580.087 509.987 575.138 509.699 572.25 509.352C567.329 508.761 567 508.547 567 505.946C567 503.221 566.863 503.158 559.5 502.468C552.105 501.775 552 501.726 552 498.943C552 496.182 551.85 496.106 545 495.431L538 494.742V491.371C538 488.185 537.808 488 534.5 488C531.167 488 531 487.833 531 484.5V481H524.138H517.276L516.606 474.457C516.237 470.858 516.202 467.483 516.527 466.957C516.852 466.431 518.413 466 519.996 466C522.511 466 522.913 465.591 523.187 462.75C523.473 459.783 523.826 459.473 527.25 459.19C530.607 458.912 531 458.589 531 456.106ZM331 460.121L334.75 459.72C336.813 459.5 349.525 459.36 363 459.41L387.5 459.5L387.794 466.75L388.088 474H384.544H381V478.853C381 481.523 380.711 486.473 380.358 489.853C379.743 495.733 379.596 496 376.97 496H374.225L373.5 510L372.775 524H363.527C358.441 524 352.191 523.714 349.64 523.364L345 522.728V516.02C345 512.33 344.707 504.516 344.348 498.656L343.696 488H340.933C338.224 488 338.157 487.854 337.468 480.5C336.771 473.064 336.741 473 333.883 473C331.004 473 331 472.991 331 466.56V460.121ZM302 469.943C302 467.418 302.395 467.079 305.75 466.728L306.206 466.68C312.432 466.029 314.701 465.791 315.528 466.771C316.001 467.332 316.001 468.294 316 469.807L316 470C316 473.905 316.083 474 319.5 474H323V484.5V495H326.36H329.72L330.188 508.75C330.445 516.313 330.46 524.413 330.223 526.75L329.79 531H315.895H302V534.5V538L296.25 538.009C293.087 538.013 288.137 538.301 285.25 538.648L280 539.279V531.639V524H276.5C273.083 524 273 523.905 273 520C273 516.105 272.909 516 269.546 516H266.091L265.796 509.25L265.5 502.5L262.25 502.187C259.275 501.9 259 501.583 259 498.437C259 495.176 259.179 495 262.5 495C265.833 495 266 494.833 266 491.5C266 488.167 266.167 488 269.5 488C272.833 488 273 487.833 273 484.5V481H280H287V477.585V474.171L294.5 473.468C301.896 472.775 302 472.726 302 469.943ZM398.534 481H402V474V467H409.5H417V469.899C417 472.754 417.105 472.808 424 473.5C430.831 474.186 431 474.271 431 477C431 479.729 431.169 479.814 438 480.5L445 481.203V484.601V488H451.862H458.725L459.343 493.263C459.683 496.158 459.686 500.859 459.348 503.71C458.766 508.626 458.574 508.909 455.617 509.197C452.802 509.471 452.47 509.863 452.19 513.25C451.896 516.796 451.692 517 448.44 517H445V524V531H441.5C438.064 531 438 531.075 438 535.139V539.279L432.75 538.648C429.863 538.301 424.913 538.013 421.75 538.009L416 538V534.5V531H402H388V517.063V503.127L391.25 502.813L394.5 502.5L394.784 491.75L395.068 481H398.534ZM237 510.121L240.75 509.728L240.918 509.71C247.336 509.039 249.608 508.802 250.501 509.799C250.991 510.345 251.067 511.262 251.184 512.682L251.19 512.75C251.471 516.148 251.796 516.529 254.654 516.806C257.783 517.11 257.814 517.167 258.506 524.056L259.203 531H262.601H266V542V553H262.5C259.167 553 259 553.167 259 556.5C259 559.917 258.905 560 255 560C251.095 560 251 560.083 251 563.5C251 566.833 250.833 567 247.5 567C244.167 567 244 567.167 244 570.5C244 573.833 243.833 574 240.5 574C237.167 574 237 574.167 237 577.5C237 580.833 236.833 581 233.5 581C230.167 581 230 581.167 230 584.5C230 587.833 229.833 588 226.5 588C223.083 588 223 588.095 223 592C223 595.882 222.9 596 219.601 596H216.203L215.5 603L214.797 610H211.399C208.181 610 208 610.187 208 613.5C208 616.833 207.833 617 204.5 617H201V599V581H204.5H208V570.5V560H211.456H214.912L215.206 552.75L215.5 545.5L218.695 545.191C221.876 544.883 221.894 544.851 222.574 537.941L223.258 531H226.629C229.815 531 230 530.808 230 527.5C230 524.167 230.167 524 233.5 524H237V517.06V510.121ZM467.192 510.109L470.846 509.701C472.856 509.476 475.85 509.339 477.5 509.396C480.223 509.49 480.529 509.847 480.81 513.25C481.104 516.796 481.308 517 484.56 517C487.825 517 488 517.178 488 520.5C488 523.833 488.167 524 491.5 524H495V531V538H498.415H501.829L502.532 545.5L503.235 553H506.617H510V560V567H512.861C515.565 567 515.756 567.287 516.352 572.25C516.699 575.138 516.987 583.237 516.991 590.25L517 603H519.861C522.565 603 522.755 603.286 523.342 608.237C523.683 611.117 523.683 615.842 523.343 618.737C522.758 623.718 522.571 624 519.862 624C517.258 624 517 623.685 517 620.5C517 617.187 516.819 617 513.601 617H510.203L509.506 610.056C508.814 603.167 508.783 603.11 505.654 602.806C502.796 602.529 502.471 602.148 502.19 598.75C501.909 595.363 501.602 595 499.019 595C496.237 595 496.14 594.823 495.463 588.5L494.767 582H491.384C488.103 582 488 581.879 488 578C488 574.095 487.917 574 484.5 574C481.167 574 481 573.833 481 570.5V567H474H467V563.56C467 560.308 466.796 560.104 463.25 559.81C459.826 559.527 459.473 559.217 459.187 556.25C458.899 553.266 458.589 553 455.393 553H451.912L452.206 545.75L452.5 538.5L455.75 538.187L459 537.873V530.937V524H462.399H465.797L466.495 517.055L467.192 510.109ZM309 548.943C309 546.418 309.395 546.079 312.75 545.728C319.409 545.032 326.376 545.002 331.75 545.648C336.917 546.269 337 546.332 337 549.639C337 552.667 336.718 553 334.152 553H331.304L330.652 563.656C330.293 569.516 330 577.616 330 581.656V589H327.136C324.487 589 324.224 589.348 323.636 593.64C323.286 596.191 323 600.916 323 604.14V610H319.5H316V617V624H312.629H309.258L308.569 631C307.89 637.886 307.832 638 305 638C302.395 638 302.091 638.357 301.81 641.75C301.517 645.296 301.296 645.517 297.75 645.81C294.204 646.104 294 646.308 294 649.56C294 652.83 293.825 653 290.473 653H286.945L287.223 638.75L287.5 624.5L290.75 624.187L294 623.873V599.5V575.127L290.75 574.813L287.5 574.5V567V559.5L290.75 559.187C293.584 558.913 294 558.508 294 556.022C294 553.203 294.085 553.163 301.5 552.468C308.896 551.775 309 551.726 309 548.943ZM387.77 563.696C387.505 554.238 387.475 546.163 387.703 545.75C387.931 545.337 392.816 545 398.559 545H409V548.5V552H413.853C416.523 552 421.473 552.289 424.853 552.642L431 553.285V599.642V646H434.5C437.833 646 438 646.167 438 649.5V653H431.101H424.203L423.5 646L422.797 639H419.399C416.193 639 416 638.805 416 635.563C416 632.417 415.725 632.1 412.75 631.813L409.5 631.5L409.206 624.25L408.912 617H405.456H402V610V603H398.534H395.068L394.784 592.25L394.5 581.5L391.376 581.196L388.253 580.892L387.77 563.696ZM262.25 574.19C265.796 573.896 266 573.692 266 570.44C266 567.175 266.178 567 269.5 567H273V578V589H276.5H280V599.5V610H276.5H273V628V646H269.5H266V656.5V667H262.544H259.088L258.794 674.25L258.5 681.5L254.75 681.81C251.382 682.089 251 682.406 251 684.924C251 687.502 250.625 687.779 246.36 688.364C243.809 688.714 239.084 689 235.86 689H230V692.5V696H222.5H215V689.063V682.127L211.75 681.813L208.5 681.5L208.191 666.5C208.021 658.25 208.17 648.688 208.521 645.25C209.137 639.222 209.259 639 211.962 639C214.721 639 214.776 638.882 215.468 631.5L216.171 624H219.585H223V617V610H226.5C229.833 610 230 609.833 230 606.5C230 603.167 230.167 603 233.5 603C236.917 603 237 602.905 237 599C237 595.095 237.083 595 240.5 595C243.833 595 244 594.833 244 591.5C244 588.167 244.167 588 247.5 588C250.833 588 251 587.833 251 584.5C251 581.179 251.176 581 254.437 581C257.583 581 257.9 580.725 258.187 577.75C258.473 574.783 258.826 574.473 262.25 574.19ZM445 639V603V567H448.5C451.808 567 452 567.185 452 570.371V573.742L459 574.431C465.886 575.11 466 575.168 466 578C466 580.605 466.357 580.909 469.75 581.19C473.296 581.483 473.517 581.704 473.81 585.25C474.104 588.796 474.308 589 477.56 589C480.825 589 481 589.178 481 592.5C481 595.833 481.167 596 484.5 596H488V603V610H491.5C494.833 610 495 610.167 495 613.5C495 616.81 495.183 617 498.383 617H501.765L502.468 624.5C503.158 631.865 503.221 632 505.949 632C508.497 632 508.781 632.386 509.364 636.64C509.714 639.191 510 643.916 510 647.14V653H513.544H517.088L516.794 660.25L516.5 667.5L513.284 667.811L510.069 668.122L509.784 678.311L509.5 688.5L506.25 688.813C503.275 689.1 503 689.417 503 692.563V696H495.5H488V692.5V689H481H474V685.5C474 682.083 473.905 682 470 682C466.109 682 466 681.906 466 678.563C466 675.417 465.725 675.1 462.75 674.813L459.5 674.5L459.206 667.25L458.912 660H455.456H452V649.5V639H448.5H445Z" fill="#6E860F"/>
<path d="M660 319.5V323H653.06H646.121L645.81 326.75C645.53 330.137 645.198 330.529 642.383 330.803C639.427 331.091 639.234 331.375 638.642 336.303C637.835 343.019 637.835 367.981 638.642 374.697C639.234 379.625 639.427 379.909 642.383 380.197C645.198 380.471 645.53 380.863 645.81 384.25C646.104 387.796 646.308 388 649.56 388C652.825 388 653 388.178 653 391.5V395H674.5H696V391.629V388.258L702.904 387.578L709.807 386.898L710.505 379.949L711.203 373H714.601H718L717.991 360.25C717.987 353.238 717.699 345.137 717.352 342.25C716.756 337.287 716.565 337 713.861 337C711.258 337 711 336.684 711 333.5C711 330.167 710.833 330 707.5 330C704.167 330 704 329.833 704 326.5C704 323.083 703.905 323 700 323C696.095 323 696 322.917 696 319.5V316H678H660V319.5Z" fill="#5B7006"/>
</svg>
